<?xml version="1.0" encoding="UTF-8" standalone="no"?>
<!-- Created with Inkscape (http://www.inkscape.org/) -->

<svg
   width="297mm"
   height="210mm"
   viewBox="0 0 297 210"
   version="1.1"
   id="svg1"
   xml:space="preserve"
   inkscape:version="1.4.2 (f4327f4, 2025-05-13)"
   sodipodi:docname="Balendez,JacobMari_2DCharacterTurnaround.svg"
   inkscape:export-filename="Balendez,JacobMari_2DCharacterTurnaround.svg"
   inkscape:export-xdpi="96"
   inkscape:export-ydpi="96"
   xmlns:inkscape="http://www.inkscape.org/namespaces/inkscape"
   xmlns:sodipodi="http://sodipodi.sourceforge.net/DTD/sodipodi-0.dtd"
   xmlns="http://www.w3.org/2000/svg"
   xmlns:svg="http://www.w3.org/2000/svg"><sodipodi:namedview
     id="namedview1"
     pagecolor="#ffffff"
     bordercolor="#000000"
     borderopacity="0.25"
     inkscape:showpageshadow="2"
     inkscape:pageopacity="0.0"
     inkscape:pagecheckerboard="0"
     inkscape:deskcolor="#d1d1d1"
     inkscape:document-units="mm"
     inkscape:lockguides="false"
     inkscape:zoom="0.44809905"
     inkscape:cx="391.65448"
     inkscape:cy="275.60871"
     inkscape:window-width="1366"
     inkscape:window-height="705"
     inkscape:window-x="-8"
     inkscape:window-y="-8"
     inkscape:window-maximized="1"
     inkscape:current-layer="layer1" /><defs
     id="defs1"><inkscape:path-effect
       effect="fillet_chamfer"
       id="path-effect20"
       is_visible="true"
       lpeversion="1"
       nodesatellites_param="F,0,0,1,0,0,0,1 @ F,0,0,1,0,0,0,1 @ F,0,0,1,0,0,0,1 @ F,0,0,1,0,0,0,1 @ F,0,0,1,0,0,0,1 @ F,0,0,1,0,0,0,1 @ F,0,0,1,0,0,0,1 @ F,0,0,1,0,4.5039156,0,1 @ F,0,0,1,0,4.450404,0,1"
       radius="0"
       unit="px"
       method="auto"
       mode="F"
       chamfer_steps="1"
       flexible="false"
       use_knot_distance="true"
       apply_no_radius="true"
       apply_with_radius="true"
       only_selected="false"
       hide_knots="false" /><inkscape:path-effect
       effect="fillet_chamfer"
       id="path-effect11"
       is_visible="true"
       lpeversion="1"
       nodesatellites_param="F,0,0,1,0,0,0,1 @ F,0,0,1,0,0,0,1 @ F,0,0,1,0,0,0,1 @ F,0,0,1,0,0,0,1 @ F,0,0,1,0,0,0,1 @ F,0,0,1,0,0,0,1 @ F,0,0,1,0,0,0,1 @ F,0,0,1,0,4.5039156,0,1 @ F,0,0,1,0,4.450404,0,1"
       radius="0"
       unit="px"
       method="auto"
       mode="F"
       chamfer_steps="1"
       flexible="false"
       use_knot_distance="true"
       apply_no_radius="true"
       apply_with_radius="true"
       only_selected="false"
       hide_knots="false" /><inkscape:path-effect
       effect="fillet_chamfer"
       id="path-effect4"
       is_visible="true"
       lpeversion="1"
       nodesatellites_param="F,0,0,1,0,0,0,1 @ F,0,0,1,0,0,0,1 @ F,0,0,1,0,0,0,1 @ F,0,0,1,0,0,0,1 @ F,0,0,1,0,0,0,1 @ F,0,0,1,0,0,0,1 @ F,0,0,1,0,0,0,1 @ F,0,0,1,0,4.5039156,0,1 @ F,0,0,1,0,4.450404,0,1"
       radius="0"
       unit="px"
       method="auto"
       mode="F"
       chamfer_steps="1"
       flexible="false"
       use_knot_distance="true"
       apply_no_radius="true"
       apply_with_radius="true"
       only_selected="false"
       hide_knots="false" /><inkscape:path-effect
       effect="fillet_chamfer"
       id="path-effect3"
       is_visible="true"
       lpeversion="1"
       nodesatellites_param="F,0,0,1,0,0,0,1 @ F,0,0,1,0,0,0,1 @ F,0,0,1,0,0,0,1 @ F,0,0,1,0,0,0,1"
       radius="0"
       unit="px"
       method="auto"
       mode="F"
       chamfer_steps="1"
       flexible="false"
       use_knot_distance="true"
       apply_no_radius="true"
       apply_with_radius="true"
       only_selected="false"
       hide_knots="false" /></defs><g
     inkscape:label="Layer 1"
     inkscape:groupmode="layer"
     id="layer1"><path
       style="fill:none;fill-rule:evenodd;stroke:#000000;stroke-width:1;stroke-linecap:round;stroke-linejoin:bevel;stroke-dasharray:none;paint-order:fill markers stroke"
       d="m 50.188867,30.113319 c 11.475408,-4.204889 32.055941,7.731963 34.246518,13.580517 6.888669,9.840955 8.903464,14.7331 9.724639,29.385741 -0.221228,15.794022 -4.738402,19.473404 -10.019866,27.888613 -3.396577,2.87776 -7.628187,5.338 -12.69483,7.38072 -4.838952,0.77738 -9.956248,0.58056 -15.351889,-0.59046 -5.17398,-2.70068 -11.941704,-7.43739 -15.647117,-15.647119 -2.944485,-7.248568 -3.240749,-15.379876 -3.432095,-23.546157 -0.05824,-2.485661 0.776824,-6.311252 1.855307,-8.552711 1.015261,-2.11006 2.069404,-4.265484 3.492516,-6.851372 1.1849,-2.15304 2.44833,-5.537632 2.056646,-7.528788 -0.918739,-4.670482 -1.662326,-12.292797 5.770171,-15.518984 z"
       id="path3"
       sodipodi:nodetypes="cccccccccc"
       inkscape:path-effect="#path-effect4"
       inkscape:original-d="m 50.188867,30.113319 c 11.475408,-4.204889 32.055941,7.731963 34.246518,13.580517 6.888669,9.840955 8.903464,14.7331 9.724639,29.385741 -0.221228,15.794022 -4.738402,19.473404 -10.019866,27.888613 -3.396577,2.87776 -7.628187,5.338 -12.69483,7.38072 -4.838952,0.77738 -9.956248,0.58056 -15.351889,-0.59046 -5.17398,-2.70068 -11.941704,-7.43739 -15.647117,-15.647119 -3.485608,-8.580675 -3.260202,-18.398355 -3.542744,-28.046719 2.296728,-4.614903 3.849479,-8.361833 7.675946,-14.761432 2.655178,2.203835 -6.215809,-14.056976 5.609343,-19.189861 z" /><path
       style="fill:none;fill-rule:evenodd;stroke:#000000;stroke-width:1;stroke-linecap:round;stroke-linejoin:bevel;stroke-dasharray:none;paint-order:fill markers stroke"
       d="m 93.572776,65.976584 c 11.210644,6.606161 1.893901,35.807756 -5.705787,29.35914 3.742581,-6.125401 7.365764,-6.780186 5.705787,-29.35914 z"
       id="path4"
       sodipodi:nodetypes="ccc" /><path
       style="fill:none;fill-rule:evenodd;stroke:#000000;stroke-width:1;stroke-linecap:round;stroke-linejoin:bevel;stroke-dasharray:none;paint-order:fill markers stroke"
       d="m 37.210523,65.869409 c -8.79649,4.851833 -4.622685,33.191686 5.533332,30.385184 -4.749798,-9.555801 -6.594242,-19.684195 -5.533332,-30.385184 z"
       id="path5"
       sodipodi:nodetypes="ccc" /><path
       style="fill:none;fill-rule:evenodd;stroke:#000000;stroke-width:1;stroke-linecap:round;stroke-linejoin:bevel;stroke-dasharray:none;paint-order:fill markers stroke"
       d="m 54.148092,106.68294 c -5.757871,7.01977 -11.36074,14.96965 -13.074925,25.82631 0.621327,8.91138 4.591038,9.97125 8.454708,2.55728 -0.04779,-11.46325 3.132643,-19.51892 6.565564,-27.30808 z"
       id="path6"
       sodipodi:nodetypes="ccccc" /><path
       style="fill:none;fill-rule:evenodd;stroke:#000000;stroke-width:1;stroke-linecap:round;stroke-linejoin:bevel;stroke-dasharray:none;paint-order:fill markers stroke"
       d="m 74.849092,106.85392 c 2.92359,8.92118 4.879136,15.18283 6.867007,26.55251 4.393212,10.71004 7.872439,6.60764 8.012871,-1.503 -1.616649,-9.99829 -6.64223,-17.2289 -13.38037,-25.65807 z"
       id="path7"
       sodipodi:nodetypes="ccccc" /><path
       style="fill:none;fill-rule:evenodd;stroke:#000000;stroke-width:1;stroke-linecap:round;stroke-linejoin:bevel;stroke-dasharray:none;paint-order:fill markers stroke"
       d="m 50.879827,122.52213 c 9.640143,5.15197 19.181877,5.18665 28.625201,0.10403 l -4.655936,-15.77224 c -4.58414,2.8466 -12.49859,1.7435 -18.755653,0.90453 -2.03951,4.64911 -4.000349,9.36919 -5.213612,14.76368 z"
       id="path8"
       sodipodi:nodetypes="ccccc" /><path
       style="fill:none;fill-rule:evenodd;stroke:#000000;stroke-width:1;stroke-linecap:round;stroke-linejoin:bevel;stroke-dasharray:none;paint-order:fill markers stroke"
       d="m 50.879827,122.52213 c -0.658321,6.78498 -4.118261,14.40145 2.704168,18.96619 l -0.729885,10.48804 c -1.408122,0.0113 -1.821873,5.78874 1.246535,5.52811 l 9.631834,-0.12916 0.62736,-12.71328 2.65706,0.14761 0.701167,12.63947 10.738941,0.18452 c 2.571072,-1.87563 1.456142,-5.52118 -0.183432,-5.97828 0.05692,-3.59901 -0.09491,-7.07624 -0.03799,-10.53607 2.06479,-2.57095 3.22496,-5.1419 3.480512,-7.71285 l -2.211073,-10.78027 c -9.951126,5.07715 -19.492859,5.04247 -28.625199,-0.10403 z"
       id="path9"
       sodipodi:nodetypes="cccccccccccccc" /><path
       style="fill:none;fill-rule:evenodd;stroke:#000000;stroke-width:1;stroke-linecap:round;stroke-linejoin:bevel;stroke-dasharray:none;paint-order:fill markers stroke"
       d="m 50.188867,30.113319 c 11.475408,-4.204889 32.055941,7.731963 34.246518,13.580517 6.888669,9.840955 8.903464,14.7331 9.724639,29.385741 -0.221228,15.794022 -4.738402,19.473404 -10.019866,27.888613 -3.396577,2.87776 -7.628187,5.338 -12.69483,7.38072 -4.838952,0.77738 -9.956248,0.58056 -15.351889,-0.59046 -5.17398,-2.70068 -11.941704,-7.43739 -15.647117,-15.647119 -3.313344,-7.250704 -4.184246,-15.384669 -3.844376,-23.553378 0.103393,-2.485039 1.189105,-6.304031 2.267588,-8.54549 1.015261,-2.11006 2.069404,-4.265484 3.492516,-6.851372 1.1849,-2.15304 2.44833,-5.537632 2.056646,-7.528788 -0.918739,-4.670482 -1.662326,-12.292797 5.770171,-15.518984 z"
       id="path10"
       sodipodi:nodetypes="cccccccccc"
       inkscape:path-effect="#path-effect11"
       inkscape:original-d="m 50.188867,30.113319 c 11.475408,-4.204889 32.055941,7.731963 34.246518,13.580517 6.888669,9.840955 8.903464,14.7331 9.724639,29.385741 -0.221228,15.794022 -4.738402,19.473404 -10.019866,27.888613 -3.396577,2.87776 -7.628187,5.338 -12.69483,7.38072 -4.838952,0.77738 -9.956248,0.58056 -15.351889,-0.59046 -5.17398,-2.70068 -11.941704,-7.43739 -15.647117,-15.647119 -3.921099,-8.580675 -4.421562,-18.398355 -3.542744,-28.046719 2.296728,-4.614903 3.849479,-8.361833 7.675946,-14.761432 2.655178,2.203835 -6.215809,-14.056976 5.609343,-19.189861 z"
       transform="matrix(-1,0,0,1,219.82888,0)" /><path
       style="fill:none;fill-rule:evenodd;stroke:#000000;stroke-width:1;stroke-linecap:round;stroke-linejoin:bevel;stroke-dasharray:none;paint-order:fill markers stroke"
       d="m 183.61751,65.976584 c 10.40896,8.476748 1.89123,35.813986 -5.70579,29.35914 2.79623,-6.310068 4.83627,-7.273782 5.70579,-29.35914 z"
       id="path11"
       sodipodi:nodetypes="ccc" /><path
       style="fill:none;fill-rule:evenodd;stroke:#000000;stroke-width:1;stroke-linecap:round;stroke-linejoin:bevel;stroke-dasharray:none;paint-order:fill markers stroke"
       d="m 126.25801,65.960556 c -8.79649,4.851833 -4.18546,33.214761 5.97056,30.408259 -4.7498,-9.555801 -7.03147,-19.70727 -5.97056,-30.408259 z"
       id="path12"
       sodipodi:nodetypes="ccc" /><path
       id="path13"
       style="fill:none;fill-rule:evenodd;stroke:#000000;stroke-width:1;stroke-linecap:round;stroke-linejoin:bevel;stroke-dasharray:none;paint-order:fill markers stroke"
       d="m 149.58268,127.07633 c -3.45266,-0.51397 -6.44453,-1.62065 -9.78748,-3.50456 h -3e-5 v 0 c -0.65833,6.78498 -4.01581,13.41634 1.52324,18.30193 -0.0368,3.47667 0.29821,6.80893 0.11891,10.37732 -1.1817,0.18722 -2.14914,4.75417 1.57866,5.71263 2.38928,0.42739 9.90795,0.64303 9.59494,-1.34698 0.59041,-5.95358 0.27159,-7.37279 0.47974,-11.60617 l 2.14041,-0.14762 0.66426,10.97881 c 0.31567,3.48608 5.85595,2.38792 10.59133,2.32493 2.45267,-2.32347 1.38481,-7.312 -0.0414,-7.27522 0.0569,-3.59901 0.6488,-5.26265 0.7057,-8.72248 2.06479,-2.57095 3.22496,-5.1419 3.48052,-7.71285 L 168.4204,123.6758 c -3.01433,1.53794 -5.5667,2.42231 -8.5059,3.02216"
       sodipodi:nodetypes="cscsccccccccccccc" /><ellipse
       style="fill:none;fill-rule:evenodd;stroke:#000000;stroke-width:0.799838;stroke-linecap:round;stroke-linejoin:bevel;stroke-dasharray:none;paint-order:fill markers stroke"
       id="ellipse14"
       cx="154.80101"
       cy="128.95903"
       rx="5.0341096"
       ry="6.1885037" /><path
       style="fill:none;fill-rule:evenodd;stroke:#000000;stroke-width:1;stroke-linecap:round;stroke-linejoin:bevel;stroke-dasharray:none;paint-order:fill markers stroke"
       d="m 139.7952,123.57177 c 9.64014,5.15197 19.18188,5.18665 28.6252,0.10403 -1.37352,-5.25741 -1.78446,-10.51483 -4.65594,-15.77224 -6.2298,1.08089 -15.60162,1.55642 -18.49085,-0.91019 -2.03951,3.8637 -4.26515,11.10212 -5.47841,16.5784 z"
       id="path14"
       sodipodi:nodetypes="ccccc" /><path
       style="fill:none;fill-rule:evenodd;stroke:#000000;stroke-width:1;stroke-linecap:round;stroke-linejoin:bevel;stroke-dasharray:none;paint-order:fill markers stroke"
       d="m 163.73544,107.75845 c 2.92359,8.92118 4.82039,14.2783 6.80826,25.64798 4.39321,10.71004 7.87244,6.60764 8.01287,-1.503 -1.61665,-9.99829 -5.97797,-16.86116 -12.71611,-25.29033 -0.37808,0.12758 -1.4701,0.89176 -2.10502,1.14535 z"
       id="path15"
       sodipodi:nodetypes="ccccc" /><path
       style="fill:none;fill-rule:evenodd;stroke:#000000;stroke-width:1;stroke-linecap:round;stroke-linejoin:bevel;stroke-dasharray:none;paint-order:fill markers stroke"
       d="m 143.27321,106.39026 c -5.75787,7.01977 -11.36074,14.96965 -13.07492,25.82631 0.62132,8.91138 4.59103,9.97125 8.4547,2.55728 -0.0478,-11.46325 3.13265,-19.51892 6.56557,-27.30808 z"
       id="path16"
       sodipodi:nodetypes="ccccc" /><path
       style="fill:none;fill-rule:evenodd;stroke:#000000;stroke-width:1;stroke-linecap:round;stroke-linejoin:round;stroke-dasharray:none;paint-order:fill markers stroke"
       d="m 148.79523,86.686505 c 4.36656,4.252105 8.52436,3.772358 12.47341,-1.43924 -3.19759,4.294086 -7.04014,6.318545 -12.47341,1.43924 z"
       id="path17"
       sodipodi:nodetypes="ccc" /><path
       style="fill:none;fill-rule:evenodd;stroke:#000000;stroke-width:1;stroke-linecap:round;stroke-linejoin:round;stroke-dasharray:none;paint-order:fill markers stroke"
       d="m 126.07071,68.44752 c 11.46048,-16.855862 39.40402,-22.789434 57.13327,-1.018633 l -1.74095,19.972824 c -6.464,7.524633 -11.9439,7.373321 -16.4397,-0.453935 -5.14438,-11.958513 -15.26086,-12.480309 -20.9802,-0.417518 -4.08279,8.436943 -9.54825,8.679701 -15.76173,-0.08863 -2.39638,-4.845587 -3.13327,-10.843623 -2.21069,-17.994108 z"
       id="path18"
       sodipodi:nodetypes="ccccccc" /><path
       style="fill:none;fill-rule:evenodd;stroke:#000000;stroke-width:1;stroke-linecap:round;stroke-linejoin:bevel;stroke-dasharray:none;paint-order:fill markers stroke"
       d="m 47.161874,29.904561 c 11.134135,-9.588339 29.591718,4.305882 36.334099,14.31117 6.11977,9.959248 7.975706,14.317806 9.829018,28.811656 -0.11098,15.87551 -1.161298,21.552342 -9.184833,27.940803 -3.396577,2.87776 -5.436226,2.8329 -10.502869,4.87562 -5.668541,1.09668 -10.424034,0.73857 -15.665027,0.45333 -5.167227,-2.70203 -12.295182,-6.15589 -16.638718,-14.237999 -2.361759,-7.131765 -4.522379,-15.310504 -4.605498,-23.495998 -0.02525,-2.486232 1.055726,-6.326623 1.750036,-8.711619 0.673771,-2.314442 1.224742,-4.759619 2.374983,-7.518981 0.944787,-2.266492 2.892713,-5.611467 2.638803,-7.669611 -0.616755,-4.999315 -1.911193,-13.301603 3.670006,-14.758371 z"
       id="path19"
       sodipodi:nodetypes="cccccccccc"
       inkscape:path-effect="#path-effect20"
       inkscape:original-d="m 47.161874,29.904561 c 11.134135,-9.588339 29.591718,4.305882 36.334099,14.31117 6.11977,9.959248 7.975706,14.317806 9.829018,28.811656 -0.11098,15.87551 -1.161298,21.552342 -9.184833,27.940803 -3.396577,2.87776 -5.436226,2.8329 -10.502869,4.87562 -5.668541,1.09668 -10.424034,0.73857 -15.665027,0.45333 C 52.805035,103.59511 45.67708,100.14125 41.333544,92.059141 38.53858,83.619233 36.025309,73.713045 36.903578,64.064612 c 2.296728,-4.614903 2.127224,-9.301245 5.953691,-15.700844 3.200211,1.729129 -4.165604,-16.248369 4.304605,-18.459207 z"
       transform="translate(170.9054,1.4613072)" /><ellipse
       style="fill:none;fill-rule:evenodd;stroke:#000000;stroke-width:0.661078;stroke-linecap:round;stroke-linejoin:round;stroke-dasharray:none;paint-order:fill markers stroke"
       id="path20"
       cx="140.98772"
       cy="73.340919"
       rx="3.5904024"
       ry="4.7581754" /><ellipse
       style="fill:none;fill-rule:evenodd;stroke:#000000;stroke-width:0.661078;stroke-linecap:round;stroke-linejoin:round;stroke-dasharray:none;paint-order:fill markers stroke"
       id="ellipse20"
       cx="168.33327"
       cy="73.137947"
       rx="3.5904024"
       ry="4.7581754" /><path
       style="fill:none;fill-rule:evenodd;stroke:#000000;stroke-width:1;stroke-linecap:round;stroke-linejoin:round;stroke-dasharray:none;paint-order:fill markers stroke"
       d="m 228.87766,107.75845 c -4.00835,4.25826 -4.5489,12.38358 -6.44584,20.41906 -0.67846,3.02699 -0.45231,6.05399 0.67847,9.08098 0.83503,4.88842 2.78344,7.27175 5.84523,7.14997 l 0.52189,13.83023 c 3.25315,2.45291 6.71506,2.47031 10.38572,0.0522 1.79184,0.24355 3.58368,0.0696 5.37552,-0.5219 1.82663,-1.42651 1.91362,-3.34013 0.26095,-5.74085 l -0.26095,-7.4631 c 3.44451,-0.95681 5.28854,-4.07079 5.53209,-8.92442 0.96955,-5.25743 -0.062,-8.75254 -0.9916,-12.57768 -1.91808,-5.30719 -2.77766,-11.39685 -5.23645,-15.75781 -5.29313,0.84126 -10.5148,0.99236 -15.66503,0.45332 z"
       id="path21"
       sodipodi:nodetypes="ccccccccccccc" /><path
       id="path22"
       style="fill:none;fill-rule:evenodd;stroke:#000000;stroke-width:1;stroke-linecap:round;stroke-linejoin:round;stroke-dasharray:none;paint-order:fill markers stroke"
       d="M 238.18773 145.18015 L 239.63316 145.30097 L 240.24229 152.96533 C 241.75118 154.39259 241.62479 156.16777 239.86313 158.29089 L 245.23865 157.76899 C 247.06416 155.93099 247.15114 154.01737 245.4996 152.02814 L 245.23865 144.56504 C 252.5784 141.78027 252.61555 132.667 250.15137 124.5801 L 250.15137 124.5801 C 244.27507 124.30762 228.13087 131.8181 234.64418 122.12353 C 231.3111 125.48134 232.02129 134.9233 229.89493 139.29388 C 228.03719 140.85672 225.98262 141.04183 223.73124 139.84921 C 224.01129 142.22652 225.75272 143.74627 228.95552 144.40846 L 230.67897 144.55252 " /><path
       style="fill:none;fill-rule:evenodd;stroke:#000000;stroke-width:1;stroke-linecap:round;stroke-linejoin:round;stroke-dasharray:none;paint-order:fill markers stroke"
       d="m 250.15137,124.5801 c -4.80145,2.9952 -4.85647,8.36685 -0.0108,14.88093 1.23579,-3.00548 1.23939,-7.96579 0.0108,-14.88093 z"
       id="path24"
       sodipodi:nodetypes="ccc" /><ellipse
       style="fill:none;fill-rule:evenodd;stroke:#000000;stroke-width:1.11061;stroke-linecap:round;stroke-linejoin:round;stroke-dasharray:none;paint-order:fill markers stroke"
       id="path25"
       cx="234.75517"
       cy="77.819878"
       rx="10.187337"
       ry="15.874658" /><path
       style="fill:none;fill-rule:evenodd;stroke:#000000;stroke-width:1;stroke-linecap:round;stroke-linejoin:round;stroke-dasharray:none;paint-order:fill markers stroke"
       d="m 264.15481,79.258884 c -2.01083,-7.516673 -15.14226,22.136056 -19.90776,4.466317 1.82501,-7.180541 0.4044,-13.689969 -4.26184,-19.528284 4.44169,-7.111153 10.8318,-10.46466 19.17031,-10.060519 3.32598,7.494735 5.11248,16.828235 4.99929,25.122486 z"
       id="path26"
       sodipodi:nodetypes="ccccc" /><ellipse
       style="fill:none;fill-rule:evenodd;stroke:#000000;stroke-width:0.589203;stroke-linecap:round;stroke-linejoin:round;stroke-dasharray:none;paint-order:fill markers stroke"
       id="path27"
       cx="140.98772"
       cy="73.340919"
       rx="1.7616667"
       ry="2.4808989" /><ellipse
       style="fill:none;fill-rule:evenodd;stroke:#000000;stroke-width:0.589203;stroke-linecap:round;stroke-linejoin:round;stroke-dasharray:none;paint-order:fill markers stroke"
       id="ellipse27"
       cx="168.33327"
       cy="72.819023"
       rx="1.7616667"
       ry="2.4808989" /><ellipse
       style="fill:none;fill-rule:evenodd;stroke:#000000;stroke-width:0.593228;stroke-linecap:round;stroke-linejoin:round;stroke-dasharray:none;paint-order:fill markers stroke"
       id="ellipse28"
       cx="254.03822"
       cy="71.405792"
       rx="3.0341837"
       ry="4.5339875" /><path
       style="fill:none;fill-rule:evenodd;stroke:#000000;stroke-width:0.499999;stroke-linecap:round;stroke-linejoin:round;stroke-dasharray:none;paint-order:fill markers stroke"
       d="m 256.03702,68.096018 c -1.87387,2.099436 -1.77954,4.198872 0.28297,6.298308 1.09755,-1.885276 1.00322,-3.984712 -0.28297,-6.298308 z"
       id="path28"
       sodipodi:nodetypes="ccc" /><path
       style="fill:#0000ff;fill-rule:evenodd;stroke:#000000;stroke-width:0.745519;stroke-linecap:round;stroke-linejoin:round;stroke-dasharray:none;paint-order:fill markers stroke"
       d="m 337.78122,361.20059 c -3.20905,-1.0419 -3.21625,-0.96436 0.60284,-6.48927 6.25909,-9.05478 8.38657,-12.43542 10.33614,-16.42447 3.64434,-7.45677 5.75718,-15.09581 7.14692,-25.83998 1.71155,-13.23207 2.24312,-39.60283 1.04567,-51.87453 -0.33862,-3.47015 -0.52374,-6.39934 -0.41139,-6.50931 0.30812,-0.3016 4.24518,4.0496 5.98527,6.61486 6.15784,9.07797 9.21433,22.39741 8.60295,37.48958 -0.79173,19.5441 -6.88146,40.02139 -15.69766,52.78482 -1.06481,1.54156 -3.24648,4.07351 -4.84814,5.62655 -4.50552,4.36876 -8.77725,5.91569 -12.7626,4.62175 z"
       id="path29"
       transform="scale(0.26458333)" /><path
       style="fill:#0000ff;fill-rule:evenodd;stroke:#000000;stroke-width:0.745519;stroke-linecap:round;stroke-linejoin:round;stroke-dasharray:none;paint-order:fill markers stroke"
       d="m 152.8538,361.99854 c -2.86449,-0.69591 -5.48477,-2.06293 -8.05642,-4.20308 -12.4112,-10.3287 -20.85466,-37.62317 -20.00833,-64.67927 0.53683,-17.1617 4.48726,-30.32823 11.23452,-37.44392 l 2.08959,-2.20369 -0.25653,1.7131 c -0.43116,2.87921 -0.29783,26.3673 0.18062,31.8197 0.76545,8.72286 1.84633,16.55812 4.21774,30.57403 1.31518,7.77325 3.67062,17.15942 6.07977,24.22728 2.28774,6.71167 3.78985,10.10444 7.11658,16.07395 1.29256,2.31937 2.35011,4.31945 2.35011,4.44461 0,0.37691 -2.82686,0.19252 -4.94765,-0.32271 z"
       id="path30"
       transform="scale(0.26458333)" /><path
       style="fill:#0000ff;fill-rule:evenodd;stroke:#000000;stroke-width:0.745519;stroke-linecap:round;stroke-linejoin:round;stroke-dasharray:none;paint-order:fill markers stroke"
       d="m 272.5052,593.33279 c -7.75593,-0.14229 -14.21499,-0.37201 -14.35348,-0.5105 -0.13848,-0.13848 -0.82067,-10.47704 -1.51597,-22.97458 l -1.2642,-22.72279 -0.95148,-0.94434 c -0.8713,-0.86474 -1.38488,-0.96692 -6.09332,-1.2122 -5.04588,-0.26287 -5.16123,-0.25029 -6.18196,0.67426 l -1.04014,0.94212 -1.09728,23.12353 -1.09727,23.12353 -17.96899,0.20983 c -20.32449,0.23732 -19.98221,0.27965 -21.59545,-2.67087 -1.24129,-2.27023 -1.77763,-6.14162 -1.27943,-9.23514 0.48244,-2.99567 0.86258,-3.79064 2.56194,-5.35761 l 1.2835,-1.18351 1.36191,-19.92243 c 1.18313,-17.30735 1.29024,-20.06484 0.81596,-21.00732 -0.30026,-0.59669 -0.68596,-1.08488 -0.8571,-1.08488 -0.73885,0 -6.03711,-4.89643 -7.76392,-7.17509 -2.27005,-2.99551 -4.60367,-7.85413 -5.47153,-11.39179 -1.42342,-5.80227 -0.62835,-19.95636 1.94725,-34.66586 0.96637,-5.51902 1.75976,-10.401 1.76308,-10.84885 0.0143,-1.92995 0.51488,-1.94285 4.17924,-0.10772 11.30368,5.66094 25.24619,9.70528 37.77395,10.95718 6.08331,0.6079 21.11012,0.26957 26.6844,-0.6008 10.00086,-1.56155 20.41696,-4.70886 30.65281,-9.26201 l 5.99634,-2.66732 0.40933,1.90862 c 2.91924,13.61191 7.12531,34.93284 7.12316,36.10786 -0.004,2.27384 -1.39803,7.63713 -2.97469,11.44594 -1.77367,4.28472 -4.37975,8.8108 -7.42991,12.90379 -2.94528,3.95226 -2.80803,2.43921 -2.41393,26.61127 l 0.29297,17.96964 1.08016,1.00664 c 0.59409,0.55365 1.5775,1.45046 2.18536,1.9929 1.86574,1.66495 2.72281,4.10583 2.70119,7.69282 -0.0219,3.6333 -0.63701,5.34718 -2.76409,7.70161 l -1.4177,1.56923 -4.58952,-0.0682 c -2.52423,-0.0375 -10.93527,-0.18465 -18.69119,-0.32694 z"
       id="path31"
       transform="scale(0.26458333)" /><path
       style="fill:#0000ff;fill-rule:evenodd;stroke:#000000;stroke-width:1.49104;stroke-linecap:round;stroke-linejoin:round;stroke-dasharray:none;paint-order:fill markers stroke"
       d="m 574.20002,479.17731 c -2.49524,-0.18077 -4.53679,-0.62587 -4.53679,-0.98913 0,-0.36325 1.15392,-2.37935 2.56427,-4.4802 6.71165,-9.99767 18.96431,-9.949 25.71095,0.10212 l 2.63248,3.92187 -2.63248,0.54125 c -3.63183,0.74672 -18.23407,1.30285 -23.73843,0.90409 z"
       id="path32"
       transform="scale(0.26458333)" /><path
       style="fill:#0000ff;fill-rule:evenodd;stroke:#000000;stroke-width:1.49104;stroke-linecap:round;stroke-linejoin:round;stroke-dasharray:none;paint-order:fill markers stroke"
       d="m 599.87947,595.70507 c -4.31407,-0.90897 -6.29745,-2.0109 -7.43068,-4.12836 -0.52569,-0.98227 -1.46452,-10.782 -2.18785,-22.83751 -1.47618,-24.60263 -1.2833,-24.06002 -8.2434,-23.19041 -2.3946,0.29918 -4.68793,0.96534 -5.09631,1.48035 -0.40838,0.51501 -0.95871,9.81272 -1.22295,20.66157 -0.26425,10.84885 -0.76765,20.96787 -1.11867,22.4867 -0.95511,4.13267 -3.42811,4.96284 -15.96249,5.35846 -12.98646,0.40989 -19.15658,-0.57343 -22.26105,-3.54771 -4.17503,-3.99993 -4.53481,-10.53544 -0.80755,-14.66936 1.24254,-1.37811 1.34532,-3.41401 1.09765,-21.74315 l -0.27325,-20.22267 -2.90262,-3.16181 c -4.23484,-4.61301 -6.21694,-8.18482 -7.65331,-13.79152 -0.92049,-3.59302 -1.05183,-5.44058 -0.47218,-6.64203 0.44166,-0.91544 1.02228,-6.45766 1.29027,-12.31604 0.41751,-9.12715 2.91394,-27.21441 3.89102,-28.19149 0.17385,-0.17385 2.51022,0.7915 5.19192,2.14522 5.8737,2.96504 19.53018,7.58465 24.56775,8.31059 l 3.64116,0.52472 0.41458,6.64533 c 0.87499,14.02488 9.23692,23.52436 20.70736,23.52436 5.5665,0 9.2223,-1.55366 13.4422,-5.71274 4.78841,-4.7194 6.93058,-10.30101 7.00713,-18.25769 l 0.0649,-6.74096 7.10106,-2.01346 c 3.90559,-1.10741 10.11902,-3.34912 13.80763,-4.98158 3.68861,-1.63246 7.09203,-3.13861 7.56315,-3.34699 0.80455,-0.35587 7.10472,27.64964 8.02482,35.67194 0.65627,5.72194 -3.716,17.30046 -9.65234,25.56106 -2.48114,3.45259 -2.58814,3.9423 -3.87856,17.75266 -0.72988,7.81117 -1.48728,15.48219 -1.68312,17.04671 -0.2729,2.18005 0.0294,3.19338 1.29378,4.33767 2.97893,2.6959 4.14828,5.95008 4.08187,11.35942 -0.0625,5.09379 -1.55729,10.00734 -3.53424,11.61774 -1.35231,1.10158 -24.51902,1.91459 -28.80764,1.01098 z"
       id="path33"
       transform="scale(0.26458333)" /><path
       style="fill:#0000ff;fill-rule:evenodd;stroke:#000000;stroke-width:1.49104;stroke-linecap:round;stroke-linejoin:round;stroke-dasharray:none;paint-order:fill markers stroke"
       d="m 490.75739,362.20613 c -4.04498,-1.23043 -6.97091,-3.24427 -10.79867,-7.43245 -17.88658,-19.57077 -23.83274,-69.16829 -11.1461,-92.97086 1.31868,-2.4741 3.08059,-5.11646 3.91535,-5.87191 1.49149,-1.34977 1.50706,-1.23789 0.89981,6.46526 -0.96541,12.24656 -0.56686,30.59612 0.89001,40.97711 2.89181,20.60564 7.21553,33.00322 18.15458,52.05538 1.98725,3.46112 3.61318,6.56784 3.61318,6.90381 0,0.74994 -2.86248,0.68452 -5.52816,-0.12634 z"
       id="path34"
       transform="scale(0.26458333)" /><path
       style="fill:#0000ff;fill-rule:evenodd;stroke:#000000;stroke-width:1.49104;stroke-linecap:round;stroke-linejoin:round;stroke-dasharray:none;paint-order:fill markers stroke"
       d="m 509.30417,346.86601 c -5.65035,-2.66369 -11.65971,-7.84171 -17.38574,-14.98058 -4.1651,-5.1928 -5.24002,-7.18641 -6.59398,-12.22961 -4.32367,-16.1048 -6.44081,-31.69917 -6.52465,-48.05926 l -0.0618,-12.05154 4.42433,-5.77634 c 8.23897,-10.75672 22.46669,-23.27551 34.82089,-30.63849 21.38913,-12.7477 43.71693,-18.96208 68.24913,-18.99543 16.93217,-0.023 30.67191,2.57095 46.5963,8.79708 16.98888,6.64232 30.44645,15.7 45.90385,30.8958 10.32965,10.15483 10.86003,10.82887 10.86442,13.80762 0.003,1.7224 -1.26508,17.65033 -2.81695,35.3954 -1.96302,22.44655 -3.22897,33.36102 -4.16048,35.86984 -1.01237,2.72664 -2.80548,4.87403 -7.35254,8.80524 -14.71496,12.72202 -25.70203,14.33707 -36.96554,5.43378 -4.44524,-3.51377 -11.06963,-12.4734 -13.89386,-18.79177 -3.10841,-6.95412 -10.14236,-16.85237 -15.61113,-21.96813 -17.8267,-16.67601 -40.48447,-13.61464 -56.87371,7.6844 -1.93753,2.51796 -5.88295,8.96616 -8.7676,14.32933 -2.88466,5.36317 -6.46409,11.42366 -7.95431,13.46776 -7.27237,9.97539 -16.80596,13.29045 -25.89666,9.0049 z m 31.03779,-52.47517 c 3.44258,-2.45134 6.3325,-7.71196 7.32176,-13.32807 0.67411,-3.827 0.58974,-5.68237 -0.44144,-9.70744 -2.5594,-9.99032 -9.0882,-14.89417 -17.53062,-13.16742 -6.44055,1.3173 -12.10291,10.27578 -12.10291,19.14813 0,7.5188 4.46539,15.83575 9.8013,18.25526 3.46837,1.5727 9.89373,0.97716 12.95191,-1.20046 z m 103.35995,-0.78901 c 3.44258,-2.45133 6.3325,-7.71195 7.32175,-13.32806 1.48938,-8.45531 -2.04348,-17.67649 -8.2714,-21.58941 -1.95671,-1.22937 -3.52182,-1.4945 -7.49807,-1.27021 -4.79811,0.27065 -5.17845,0.44569 -8.41735,3.87371 -3.69371,3.90938 -5.88814,9.59628 -5.88814,15.25918 0,7.51879 4.46539,15.83574 9.8013,18.25526 3.46836,1.57269 9.89372,0.97715 12.95191,-1.20047 z"
       id="path35"
       transform="scale(0.26458333)" /><path
       style="fill:#0000ff;fill-rule:evenodd;stroke:#000000;stroke-width:1.49104;stroke-linecap:round;stroke-linejoin:round;stroke-dasharray:none;paint-order:fill markers stroke"
       d="m 676.70582,360.37597 c -1.24844,-0.91288 -1.1017,-1.50741 1.89878,-7.69282 1.78849,-3.68691 4.29298,-9.36638 5.56554,-12.62103 1.27256,-3.25466 2.62734,-6.62766 3.01063,-7.49557 0.99419,-2.25127 5.39175,-25.57236 6.32313,-33.53281 0.66547,-5.68775 2.3338,-34.69633 2.42767,-42.21188 l 0.0296,-2.36703 1.96179,2.36703 c 5.71277,6.8928 10.00327,18.56956 11.44442,31.14639 3.16651,27.63395 -7.90061,62.96146 -22.53654,71.93922 -2.72087,1.669 -8.14026,1.91976 -10.12498,0.4685 z"
       id="path36"
       transform="scale(0.26458333)" /><path
       style="fill:#0000ff;fill-rule:evenodd;stroke:#000000;stroke-width:1.49104;stroke-linecap:round;stroke-linejoin:round;stroke-dasharray:none;paint-order:fill markers stroke"
       d="m 882.69863,351.04063 c -11.7598,-2.77158 -22.39465,-15.03918 -27.64317,-31.8872 -11.24327,-36.09142 4.84274,-79.95971 30.15354,-82.23202 12.23442,-1.09836 21.96996,6.5121 30.5039,23.84548 5.64853,11.47279 6.89188,17.39128 6.96163,33.13831 0.0514,11.59465 -0.18902,14.37584 -1.77306,20.51418 -2.6359,10.21441 -7.84178,20.56293 -13.32207,26.48231 -5.5047,5.94572 -9.06735,8.2811 -14.98383,9.82214 -4.99315,1.30055 -5.63559,1.32112 -9.89694,0.3168 z"
       id="path37"
       transform="scale(0.26458333)" /><path
       style="fill:#0000ff;fill-rule:evenodd;stroke:#000000;stroke-width:1.49104;stroke-linecap:round;stroke-linejoin:round;stroke-dasharray:none;paint-order:fill markers stroke"
       d="m 937.58725,335.22764 c -3.37402,-0.94999 -6.83975,-5.34517 -9.77546,-12.39704 -2.21373,-5.31763 -2.34904,-6.13607 -1.56769,-9.48261 2.50608,-10.73351 2.52962,-27.12251 0.0552,-38.45765 -2.3642,-10.83037 -7.16415,-21.71252 -12.6234,-28.61899 l -3.29245,-4.16526 2.01349,-3.04259 c 11.07885,-16.74126 30.19957,-28.67574 50.44619,-31.48672 9.60704,-1.33381 15.25327,-1.14617 15.76411,0.52388 0.23229,0.75942 1.7211,4.93129 3.30845,9.27083 7.90903,21.62184 13.8114,51.37647 13.8114,69.62506 v 5.72514 h -2.24863 c -3.07942,0 -7.92448,3.68969 -15.4486,11.76466 -24.61712,26.41937 -33.04366,32.82456 -40.44265,30.74129 z m 26.07219,-47.53648 c 9.79798,-4.09386 12.56551,-22.82156 4.72596,-31.98031 -5.67842,-6.63396 -14.50897,-5.3915 -18.37018,2.5847 -5.66264,11.69744 -1.69211,27.57624 7.47795,29.90557 2.65979,0.67561 3.49388,0.60664 6.16627,-0.50996 z"
       id="path38"
       transform="scale(0.26458333)" /><path
       style="fill:#0000ff;fill-rule:evenodd;stroke:#000000;stroke-width:1.49104;stroke-linecap:round;stroke-linejoin:round;stroke-dasharray:none;paint-order:fill markers stroke"
       d="m 879.27411,601.68474 c -1.77677,-0.55618 -4.65808,-1.81359 -6.40291,-2.79424 l -3.17242,-1.783 -0.4876,-10.76336 c -0.26819,-5.91985 -0.72033,-16.88803 -1.00477,-24.37373 l -0.51716,-13.61038 h 2.89564 c 1.90126,0 3.0586,-0.42464 3.37016,-1.23654 0.76328,-1.9891 -0.93338,-2.94488 -6.39474,-3.60236 -2.81589,-0.339 -6.91577,-1.38897 -9.11085,-2.33327 -3.68483,-1.58517 -7.89966,-5.36827 -7.89966,-7.0905 0,-0.40065 2.42171,-0.72847 5.38157,-0.72847 4.30942,0 6.23245,-0.43227 9.65251,-2.16977 6.82025,-3.4649 7.94789,-6.56746 12.20813,-33.58932 1.42455,-9.03562 2.77095,-16.60927 2.99201,-16.83032 0.22105,-0.22106 1.08101,-0.0385 1.91103,0.40573 4.79922,2.56847 13.33386,1.65873 39.25991,-4.18485 6.94326,-1.56497 13.4656,-3.03175 14.49407,-3.25951 1.72809,-0.38269 1.65086,-0.15814 -1.01792,2.95973 -1.84979,2.16107 -3.48231,5.33087 -4.54153,8.81814 -3.28799,10.82498 -0.27698,23.16317 9.32354,38.20498 l 2.6567,4.16243 -1.94406,3.83641 c -2.28607,4.51134 -7.18419,8.94701 -12.54588,11.36135 l -3.83217,1.72561 0.56097,15.38521 c 0.52897,14.50731 0.6747,15.57925 2.55378,18.78567 2.54754,4.34704 2.66843,8.4028 0.36173,12.13512 -1.69665,2.74524 -2.04492,2.91191 -7.08284,3.3896 -2.91415,0.27632 -6.30159,0.6924 -7.52765,0.92463 l -2.2292,0.42222 1.39137,-2.64001 c 2.09544,-3.97595 1.85113,-9.87457 -0.58473,-14.11731 -1.79253,-3.12221 -2.12787,-5.00883 -3.00876,-16.92697 -0.54526,-7.37722 -1.36849,-13.87351 -1.82939,-14.43621 -0.5395,-0.65864 -2.26827,-0.9397 -4.85313,-0.789 -3.36459,0.19615 -4.01512,0.48161 -4.01512,1.76193 0,1.05733 0.77951,1.72985 2.53114,2.18374 2.98233,0.7728 2.93827,0.5914 4.17169,17.17634 0.70571,9.48916 1.10925,11.69656 2.38689,13.05655 2.51721,2.67944 2.7708,6.11274 0.75853,10.26953 -4.08895,8.44664 -18.42479,13.56036 -28.85888,10.2942 z"
       id="path39"
       transform="scale(0.26458333)" /><path
       style="fill:#cccccc;fill-rule:evenodd;stroke:#000000;stroke-width:1.49104;stroke-linecap:round;stroke-linejoin:round;stroke-dasharray:none;paint-order:fill markers stroke"
       d="m 479.7164,248.24025 c 0,-1.08072 0.88362,-6.74918 1.96359,-12.59657 3.85755,-20.88627 10.46996,-36.57565 24.22608,-57.48174 4.2552,-6.4669 8.32348,-12.8947 9.04062,-14.28398 0.71715,-1.38929 3.64654,-4.95714 6.50977,-7.92857 15.41419,-15.99665 46.57313,-32.7985 73.26156,-39.50484 47.81251,-12.01446 73.5813,7.11151 66.8829,49.64147 -2.33282,14.81171 -0.96209,19.95897 12.1778,45.72937 8.1492,15.98247 13.44658,28.54153 13.44658,31.87918 0,0.58819 -3.05235,-1.81986 -6.783,-5.35123 -20.06577,-18.99392 -42.30425,-30.92684 -67.77818,-36.36901 -11.32395,-2.41923 -33.11715,-3.01403 -45.21308,-1.23401 -32.34548,4.75989 -63.275,21.11613 -82.86492,43.82086 -4.20449,4.873 -4.86972,5.37559 -4.86972,3.67907 z"
       id="path40"
       transform="scale(0.26458333)" /><path
       style="fill:#cccccc;fill-rule:evenodd;stroke:#000000;stroke-width:1.49104;stroke-linecap:round;stroke-linejoin:round;stroke-dasharray:none;paint-order:fill markers stroke"
       d="m 565.71819,407.87092 c -5.52874,-0.96004 -6.9186,-1.50992 -19.33068,-7.64802 -9.40759,-4.6523 -24.663,-14.17472 -29.67913,-18.5257 -5.51139,-4.78058 -24.30381,-36.20563 -24.35565,-40.72799 -0.007,-0.58599 1.87937,0.66337 4.19131,2.77635 6.32135,5.77736 13.07786,9.08943 19.47601,9.54721 4.55919,0.32621 5.94186,0.0788 10.17334,-1.82014 6.88348,-3.08913 13.43587,-10.34412 18.94424,-20.97561 8.90146,-17.18036 16.44925,-26.13128 26.11074,-30.96473 7.00417,-3.50404 12.35157,-4.21808 18.94293,-2.52945 11.4238,2.92664 20.82233,11.87867 28.78066,27.41336 12.14221,23.70165 25.62964,32.57315 41.97386,27.60875 3.363,-1.02148 7.61542,-3.17883 11.12729,-5.64511 3.12626,-2.19549 5.68411,-3.762 5.68411,-3.48114 0,1.66223 -9.51713,18.39256 -13.45101,23.64574 -9.81592,13.10792 -25.04712,26.42299 -39.81728,34.80814 -6.01816,3.41657 -8.28428,4.23143 -14.98084,5.38692 -9.18558,1.58495 -37.03432,2.3045 -43.7899,1.13142 z m 29.94392,-69.89176 c 5.53739,-2.6722 15.8185,-12.88841 15.8185,-15.71863 0,-3.39547 -2.69659,-2.20461 -8.78725,3.88058 -7.56332,7.55654 -11.31694,9.53211 -18.039,9.49413 -6.09931,-0.0345 -10.10982,-1.65867 -17.08019,-6.91728 -4.9279,-3.71772 -7.37903,-4.13527 -7.37903,-1.25702 0,2.88654 10.60787,10.46442 17.30242,12.36021 5.24112,1.48421 12.87637,0.70995 18.16455,-1.84199 z"
       id="path41"
       transform="scale(0.26458333)" /><path
       style="fill:#cccccc;fill-rule:evenodd;stroke:#000000;stroke-width:1.49104;stroke-linecap:round;stroke-linejoin:round;stroke-dasharray:none;paint-order:fill markers stroke"
       d="m 236.30767,407.86556 c -20.50284,-1.90918 -23.28912,-2.55633 -31.29666,-7.26901 -14.2374,-8.37917 -29.94894,-22.2856 -38.71592,-34.26787 -5.91356,-8.08235 -14.7411,-30.75377 -18.99959,-48.7959 -2.53482,-10.7394 -3.44989,-19.07591 -4.53469,-41.31223 -1.48802,-30.50162 0.14734,-37.30968 16.57195,-68.98931 10.60713,-20.45894 12.14284,-26.8473 9.89094,-41.14522 -4.58835,-29.13267 6.02279,-47.68877 29.86673,-52.22907 8.02172,-1.52747 21.28679,-0.97374 32.07487,1.33891 18.09653,3.87936 43.11765,14.72378 60.25153,26.11364 9.88102,6.56847 20.95765,16.69563 23.99689,21.93994 1.15565,1.99407 4.8281,7.72507 8.16103,12.73554 19.19537,28.85691 26.07758,49.0853 28.41429,83.51608 2.43528,35.88329 -0.88966,59.83792 -11.26316,81.14555 -4.37878,8.9942 -23.33215,38.25884 -26.5866,41.05059 -9.71537,8.33407 -35.84473,22.80574 -45.14794,25.00505 -6.4941,1.53522 -22.55177,2.10676 -32.68367,1.16331 z"
       id="path42"
       transform="scale(0.26458333)" /><path
       style="fill:#cccccc;fill-rule:evenodd;stroke:#000000;stroke-width:1.49104;stroke-linecap:round;stroke-linejoin:round;stroke-dasharray:none;paint-order:fill markers stroke"
       d="m 237.09668,474.94021 c -11.45904,-1.11853 -26.79613,-5.61184 -37.36423,-10.9466 l -4.74517,-2.39536 1.99717,-7.28837 c 4.01487,-14.65166 15.44543,-44.03796 17.11974,-44.01234 0.49515,0.008 4.09576,0.5527 8.00135,1.21138 3.90558,0.65868 12.78191,1.41216 19.72518,1.6744 15.77902,0.59596 26.77309,-0.56372 34.27092,-3.61499 l 5.39156,-2.19411 8.03686,27.19971 c 4.60029,15.56909 7.74128,27.4953 7.3456,27.89098 -1.55813,1.55813 -16.97472,7.30483 -25.29339,9.42838 -7.61913,1.94497 -23.16005,4.11569 -26.99003,3.7699 -0.65093,-0.0588 -4.02393,-0.38411 -7.49556,-0.72298 z"
       id="path43"
       transform="scale(0.26458333)" /><path
       style="fill:#cccccc;fill-rule:evenodd;stroke:#000000;stroke-width:1.49104;stroke-linecap:round;stroke-linejoin:round;stroke-dasharray:none;paint-order:fill markers stroke"
       d="m 166.7753,526.27196 c -4.19362,-1.67505 -7.99442,-11.15708 -8.69901,-21.70183 -0.36728,-5.49662 -0.0634,-7.6943 2.35209,-17.0116 6.64073,-25.61509 18.93752,-48.75955 39.96518,-75.22065 4.46193,-5.61485 4.8573,-5.91567 6.68238,-5.0841 1.90234,0.86676 1.91597,0.93895 0.70452,3.73219 -8.46372,19.51483 -14.71416,38.02328 -18.0726,53.51555 -2.45605,11.32963 -5.07591,31.93679 -5.09406,40.06861 -0.0139,6.22542 -0.0653,6.38672 -3.74788,11.75171 -5.50657,8.02236 -10.35151,11.44363 -14.09062,9.95012 z"
       id="path44"
       transform="scale(0.26458333)" /><path
       style="fill:#cccccc;fill-rule:evenodd;stroke:#000000;stroke-width:1.49104;stroke-linecap:round;stroke-linejoin:round;stroke-dasharray:none;paint-order:fill markers stroke"
       d="m 322.17471,522.70397 c -1.91767,-2.00139 -5.09115,-6.9307 -7.23846,-11.24335 -3.36747,-6.76323 -4.12507,-9.27987 -6.34963,-21.09262 -4.47364,-23.7557 -10.22552,-45.61775 -20.91436,-79.49248 -3.24091,-10.27096 -0.77784,-8.29378 13.25055,10.63665 18.55237,25.03524 29.63712,47.59025 34.46092,70.12032 1.54651,7.2231 1.64396,8.86362 0.88323,14.86783 -1.5402,12.15643 -5.01869,19.76751 -9.03434,19.76751 -0.91832,0 -3.14945,-1.57208 -5.05791,-3.56386 z"
       id="path45"
       transform="scale(0.26458333)" /><path
       style="fill:#cccccc;fill-rule:evenodd;stroke:#000000;stroke-width:1.49104;stroke-linecap:round;stroke-linejoin:round;stroke-dasharray:none;paint-order:fill markers stroke"
       d="m 502.39118,524.62148 c -3.34037,-1.94509 -7.70317,-15.24029 -7.66657,-23.36314 0.0371,-8.23911 6.10748,-29.13642 12.4568,-42.88279 4.02249,-8.70876 10.90455,-20.59414 17.33902,-29.94462 7.05128,-10.24683 16.95211,-22.88383 17.9175,-22.86913 2.71324,0.0413 2.70153,1.37197 -0.0697,7.91988 -4.12454,9.74554 -11.8227,33.21847 -14.54307,44.34419 -1.29922,5.3135 -3.06397,14.45414 -3.92167,20.31252 -0.85769,5.85838 -2.09471,14.20213 -2.74893,18.54167 -0.65422,4.33954 -1.19158,9.60136 -1.19414,11.69294 -0.005,4.42928 -2.37327,8.41242 -8.18622,13.7706 -3.71965,3.42866 -6.49262,4.16095 -9.38302,2.47788 z"
       id="path46"
       transform="scale(0.26458333)" /><path
       style="fill:#cccccc;fill-rule:evenodd;stroke:#000000;stroke-width:1.49104;stroke-linecap:round;stroke-linejoin:round;stroke-dasharray:none;paint-order:fill markers stroke"
       d="m 560.58964,476.81152 c -2.60372,-0.58819 -6.50931,-1.63498 -8.67908,-2.3262 -5.8973,-1.87869 -20.90869,-8.25004 -20.90869,-8.87436 0,-1.27536 6.46877,-24.35126 8.38638,-29.91655 1.91669,-5.5626 10.35166,-26.21926 10.97317,-26.87251 0.14566,-0.15309 2.50659,0.45854 5.24653,1.35917 2.73993,0.90064 8.3547,2.04641 12.47726,2.54616 8.94131,1.08388 29.97915,0.47994 41.40952,-1.18877 4.3322,-0.63245 7.93423,-1.08472 8.00452,-1.00505 0.0703,0.0797 2.67929,8.13356 5.79778,17.89752 5.23057,16.37687 10.26858,34.48129 10.27366,36.91909 0.003,1.28295 -7.97389,4.88869 -17.52177,7.92057 -12.04786,3.82573 -11.81554,3.82402 -13.59142,0.0997 -1.78054,-3.73411 -6.58586,-8.32433 -10.36936,-9.90518 -3.90698,-1.63243 -10.77365,-1.39938 -14.82084,0.50302 -4.20716,1.9776 -6.86095,4.67691 -9.73814,9.90519 l -2.20547,4.00766 z"
       id="path47"
       transform="scale(0.26458333)" /><path
       style="fill:#cccccc;fill-rule:evenodd;stroke:#000000;stroke-width:1.49104;stroke-linecap:round;stroke-linejoin:round;stroke-dasharray:none;paint-order:fill markers stroke"
       d="m 660.3826,524.90509 c -3.34633,-2.34387 -5.35459,-5.0989 -9.40433,-12.90134 -3.55417,-6.84764 -4.18967,-8.92275 -6.76574,-22.0922 -1.56371,-7.99408 -4.23187,-20.03801 -5.92924,-26.7643 -1.69736,-6.72629 -3.82674,-15.60262 -4.73194,-19.72518 -2.60654,-11.87091 -5.31251,-20.83923 -8.56177,-28.37595 l -3.01163,-6.98555 1.91152,-0.87094 c 1.05134,-0.47902 2.23644,-0.67014 2.63357,-0.4247 0.39713,0.24544 4.23983,5.13194 8.53933,10.85888 19.13983,25.4943 29.12745,45.23113 34.92185,69.01012 2.1694,8.90276 2.40071,10.9441 2.0324,17.9362 -0.29703,5.63878 -0.97739,9.42251 -2.38444,13.26081 -3.02693,8.25713 -5.19418,9.91466 -9.24958,7.07415 z"
       id="path48"
       transform="scale(0.26458333)" /><path
       style="fill:#cccccc;fill-rule:evenodd;stroke:#000000;stroke-width:1.49104;stroke-linecap:round;stroke-linejoin:round;stroke-dasharray:none;paint-order:fill markers stroke"
       d="m 579.48178,507.4215 c -6.69339,-3.04023 -11.39603,-11.3568 -11.39702,-20.15548 l -4.4e-4,-3.99909 h 14.39983 c 7.9199,0 15.55375,-0.25741 16.9641,-0.57203 l 2.56427,-0.57203 v 4.57112 c 0,2.51411 -0.52458,6.33756 -1.16573,8.49656 -2.14709,7.23004 -9.59835,13.68446 -15.79792,13.68446 -1.30186,0 -3.80705,-0.65408 -5.56709,-1.45351 z"
       id="path49"
       transform="scale(0.26458333)" /><path
       style="fill:#cccccc;fill-rule:evenodd;stroke:#000000;stroke-width:1.49104;stroke-linecap:round;stroke-linejoin:round;stroke-dasharray:none;paint-order:fill markers stroke"
       d="m 851.08285,528.32014 c -1.65962,-0.61475 -3.15597,-1.2562 -3.32522,-1.42545 -0.16925,-0.16925 -0.82263,-2.42109 -1.45197,-5.00408 -0.62933,-2.583 -1.88465,-7.50482 -2.78959,-10.93738 -2.86484,-10.86673 -2.39103,-16.98234 3.551,-45.83346 5.71091,-27.72892 8.38354,-37.1889 13.06562,-46.24672 4.80773,-9.30089 4.66916,-9.23032 16.84886,-8.58008 9.82275,0.52441 35.68026,-0.21237 40.09952,-1.14259 6.25868,-1.3174 5.69155,-1.56866 7.98266,3.5366 2.89621,6.45362 5.4759,14.19141 8.79997,26.39555 1.53657,5.6414 4.01263,14.21231 5.50235,19.04646 1.48973,4.83416 2.70859,9.12213 2.70859,9.52883 0,0.4067 -2.75166,1.1613 -6.1148,1.67689 -3.36315,0.5156 -12.15071,2.35039 -19.52793,4.07732 -16.61384,3.88913 -26.71253,5.29969 -29.98228,4.18785 -2.13498,-0.72598 -2.36049,-1.12375 -2.30043,-4.05775 0.0452,-2.20579 0.8823,-4.56508 2.60073,-7.32946 2.80739,-4.51614 2.90908,-6.49307 0.3528,-6.85899 -1.25678,-0.1799 -2.32449,0.66783 -4.11034,3.26347 -4.73197,6.87768 -6.73953,14.12543 -10.3093,37.21894 -1.27452,8.24512 -3.04067,17.31833 -3.92478,20.16268 -1.39905,4.50101 -2.00796,5.39664 -4.69617,6.9075 -4.03824,2.26962 -9.16217,2.82778 -12.97929,1.41387 z"
       id="path50"
       transform="scale(0.26458333)" /><path
       style="fill:#cccccc;fill-rule:evenodd;stroke:#000000;stroke-width:1.49104;stroke-linecap:round;stroke-linejoin:round;stroke-dasharray:none;paint-order:fill markers stroke"
       d="m 941.82355,517.50726 c -7.96193,-13.59731 -9.66948,-25.69038 -4.87209,-34.50477 2.42975,-4.46425 5.41348,-7.63248 6.53515,-6.93924 0.95696,0.59143 2.8024,16.41651 2.86429,24.56184 0.0527,6.93976 -0.99892,17.51901 -1.91351,19.24919 -0.41839,0.79151 -1.15489,0.12455 -2.61384,-2.36702 z"
       id="path51"
       transform="scale(0.26458333)" /><path
       style="fill:#cccccc;fill-rule:evenodd;stroke:#000000;stroke-width:1.49104;stroke-linecap:round;stroke-linejoin:round;stroke-dasharray:none;paint-order:fill markers stroke"
       d="m 875.40353,405.65187 -9.46809,-0.52742 -8.65639,-4.62937 c -30.53544,-16.33011 -48.69535,-34.54146 -55.40314,-55.5601 -9.17053,-28.73552 -14.44669,-56.9572 -14.44669,-77.27398 0,-11.07436 0.78652,-15.51439 6.28603,-35.48584 4.81698,-17.49285 7.431,-25.05266 12.54104,-36.26891 6.22686,-13.66762 6.89259,-16.76808 5.7363,-26.71538 -2.37261,-20.41104 -1.97481,-30.02412 1.58485,-38.29877 1.87366,-4.35543 4.49328,-7.00023 9.42312,-9.51365 1.9891,-1.01412 5.7129,-3.24027 8.27511,-4.947 9.69128,-6.45552 23.96649,-9.07526 37.12145,-6.81241 32.07738,5.51781 73.48568,35.80842 93.58885,68.46125 6.00837,9.75917 13.48505,23.12284 13.13041,23.46904 -0.16387,0.15998 -4.28373,0.68772 -9.15526,1.17277 -23.06752,2.29679 -39.62908,11.25296 -54.08115,29.24603 -2.61414,3.25465 -4.96723,5.91721 -5.22908,5.91679 -0.26184,-4.1e-4 -2.95399,-1.24309 -5.98253,-2.76152 -5.19584,-2.60503 -5.9525,-2.76077 -13.41313,-2.76077 -10.22687,0 -14.76566,1.95281 -22.4376,9.65375 -12.00879,12.05418 -18.21286,29.92429 -18.21286,52.45999 0,27.48658 11.04853,50.70776 28.12682,59.11538 4.91033,2.41734 5.98547,2.64299 12.49046,2.6215 5.66868,-0.0187 7.91345,-0.38562 11.02673,-1.80224 9.19375,-4.18339 16.76856,-12.22659 22.2528,-23.62878 l 2.84199,-5.90875 1.80193,3.73877 c 2.02055,4.19241 5.99186,8.65446 9.19714,10.33368 1.17183,0.6139 3.94547,1.11619 6.16367,1.11619 8.65584,0 16.67767,-5.94249 34.98445,-25.91609 12.18351,-13.29284 16.82609,-17.25947 19.15476,-16.36588 1.19122,0.45712 1.2735,1.71679 0.81774,12.51879 -1.64727,39.04194 -9.97998,57.2837 -34.92905,76.46578 -6.32878,4.86588 -12.02367,7.60932 -25.95514,12.50356 -8.24339,2.89596 -14.21688,4.46789 -19.68334,5.17967 -10.25389,1.33514 -27.62832,1.8648 -39.4922,1.20392 z"
       id="path52"
       transform="scale(0.26458333)" /><path
       style="fill:#000000;fill-rule:evenodd;stroke:#000000;stroke-width:1.49104;stroke-linecap:round;stroke-linejoin:round;stroke-dasharray:none;paint-order:fill markers stroke"
       d="m 527.81205,291.73543 c -1.4488,-0.9764 -3.54286,-3.54152 -4.65348,-5.70028 -5.22583,-10.15774 0.31486,-24.87375 9.36517,-24.87375 9.8379,0 15.39332,14.43784 9.72148,25.2649 -3.51085,6.70191 -9.23967,8.80921 -14.43317,5.30913 z m 9.7786,-5.8177 c 2.03085,-2.03086 3.67217,-6.24856 3.64659,-9.37069 -0.0207,-2.52055 -2.85461,-8.07937 -4.59337,-9.00993 -0.87627,-0.46896 -2.79736,-0.85266 -4.26908,-0.85266 -6.09345,0 -9.73153,9.25635 -6.39861,16.27996 2.54175,5.35633 7.85931,6.70847 11.61447,2.95332 z"
       id="path53"
       transform="scale(0.26458333)" /><path
       style="fill:#000000;fill-rule:evenodd;stroke:#000000;stroke-width:1.49104;stroke-linecap:round;stroke-linejoin:round;stroke-dasharray:none;paint-order:fill markers stroke"
       d=""
       id="path54"
       transform="scale(0.26458333)" /><path
       style="fill:#000000;fill-rule:evenodd;stroke:#000000;stroke-width:1.49104;stroke-linecap:round;stroke-linejoin:round;stroke-dasharray:none;paint-order:fill markers stroke"
       d="m 633.81958,284.42879 c -6.79485,-2.85702 -6.22289,-16.3743 0.79868,-18.87539 2.99955,-1.06843 6.00346,0.82531 7.82308,4.93188 1.8528,4.18147 1.31456,8.64148 -1.43758,11.91222 -2.34283,2.7843 -4.16678,3.30001 -7.18418,2.03129 z m 5.04034,-1.57214 c 3.78028,-2.64781 4.2981,-10.71557 0.91866,-14.31283 -4.21732,-4.48913 -9.3618,-0.5796 -9.3618,7.11449 0,2.64565 0.51138,4.13692 2.04266,5.95674 2.26919,2.69678 3.87749,3.00877 6.40048,1.2416 z"
       id="path55"
       transform="scale(0.26458333)" /><path
       style="fill:#000000;fill-rule:evenodd;stroke:#000000;stroke-width:1.49104;stroke-linecap:round;stroke-linejoin:round;stroke-dasharray:none;paint-order:fill markers stroke"
       d="m 631.17199,290.94642 c -8.52265,-5.74371 -8.92843,-21.60312 -0.72927,-28.50226 7.41408,-6.23854 17.33222,1.58827 17.33222,13.67755 0,12.26555 -8.77469,20.10044 -16.60295,14.82471 z m 9.09659,-6.24728 c 4.04374,-3.18081 5.40988,-9.21748 3.25377,-14.37776 -4.29074,-10.26918 -15.47259,-6.62528 -15.47259,5.04215 0,4.79009 1.86334,8.53724 4.90176,9.85737 3.56537,1.54909 4.79596,1.46134 7.31706,-0.52176 z"
       id="path56"
       transform="scale(0.26458333)" /><path
       style="fill:#000000;fill-rule:evenodd;stroke:#000000;stroke-width:1.49104;stroke-linecap:round;stroke-linejoin:round;stroke-dasharray:none;paint-order:fill markers stroke"
       d="m 956.42035,284.01861 c -5.87785,-3.5836 -7.9596,-15.65972 -4.01939,-23.31629 3.13881,-6.09931 7.82991,-7.96946 11.96746,-4.77092 1.30833,1.0114 1.27985,1.2625 -0.51382,4.53113 -3.57199,6.50928 -3.36774,11.58336 0.70802,17.58932 2.52758,3.72461 2.48844,4.1206 -0.59303,5.9994 -3.21676,1.9613 -4.28635,1.95668 -7.54924,-0.0326 z"
       id="path57"
       transform="scale(0.26458333)" /></g></svg>
